<svg id="Layer_1" data-name="Layer 1" xmlns="http://www.w3.org/2000/svg" viewBox="0 0 799.8 681.4">
  <defs>
    <style>
      .cls-1 {
        fill: #525252;
      }

      .cls-2 {
        fill: #585858;
      }

      .cls-2, .cls-3 {
        opacity: 0.7;
      }

      .cls-3, .cls-4 {
        fill: #414141;
      }
    </style>
  </defs>
  <path d="M868.06,462.38a53.39,53.39,0,0,1-3.57,19.82,55.82,55.82,0,0,1-9.86,16.25,66.47,66.47,0,0,1-14.84,12.64,95,95,0,0,1-18.56,9,116.78,116.78,0,0,1-21,5.4,138,138,0,0,1-22.12,1.78,134.89,134.89,0,0,1-20.93-1.62,113.51,113.51,0,0,1-19.66-4.88,85.58,85.58,0,0,1-17.25-8.18,61.32,61.32,0,0,1-13.74-11.53,48.84,48.84,0,0,1-12.32-33.25,37.16,37.16,0,0,1,2.57-14.37,30.77,30.77,0,0,1,6.71-10.27,27.25,27.25,0,0,1,9.44-6.14,29.41,29.41,0,0,1,10.64-2,27.52,27.52,0,0,1,9.28,1.62,25.6,25.6,0,0,1,8.08,4.62,23,23,0,0,1,5.66,7.23,20.76,20.76,0,0,1,2.15,9.49,24.38,24.38,0,0,1-.68,6.14c-.46,1.71-.94,3.34-1.47,4.88s-1,3.07-1.41,4.61a20.4,20.4,0,0,0-.63,5.35,25.14,25.14,0,0,0,2,10.07,20.61,20.61,0,0,0,6.29,8,31,31,0,0,0,11.07,5.29,61.14,61.14,0,0,0,16.3,1.89,52.59,52.59,0,0,0,16.21-2.41,38.73,38.73,0,0,0,13-6.92A32.43,32.43,0,0,0,817.88,484a31.74,31.74,0,0,0,3.09-14.1,34.58,34.58,0,0,0-2.52-13.06q-2.52-6.24-9.07-12.74a105.68,105.68,0,0,0-18-13.69,322.26,322.26,0,0,0-29.25-15.88q-29.48-14.37-44.52-32.2a61.13,61.13,0,0,1-15-40.59,55.75,55.75,0,0,1,3.14-19.13,53,53,0,0,1,8.76-15.53,61.83,61.83,0,0,1,13.16-12A80.29,80.29,0,0,1,744,286.56a98.42,98.42,0,0,1,18.62-5.09,116.32,116.32,0,0,1,19.61-1.67,113.52,113.52,0,0,1,18.2,1.46,97.09,97.09,0,0,1,17,4.36,77.63,77.63,0,0,1,15,7.18,53.55,53.55,0,0,1,12,10,43.84,43.84,0,0,1,7.87,12.85,42.15,42.15,0,0,1,2.83,15.63,35,35,0,0,1-2.26,13,26.84,26.84,0,0,1-6.18,9.49,26.4,26.4,0,0,1-9.18,5.82,31.32,31.32,0,0,1-11.22,2,31.8,31.8,0,0,1-9.81-1.47,25.24,25.24,0,0,1-8-4.15,19.6,19.6,0,0,1-5.4-6.55,19,19,0,0,1-2-8.81,23.34,23.34,0,0,1,.63-5.66q.63-2.52,1.41-4.72c.53-1.47,1-2.89,1.47-4.25a13.46,13.46,0,0,0,.68-4.25,15.36,15.36,0,0,0-2.3-8.49,18.67,18.67,0,0,0-6.14-5.87,29,29,0,0,0-8.76-3.41,45.61,45.61,0,0,0-10.06-1.1,41.16,41.16,0,0,0-12,1.83,32.7,32.7,0,0,0-10.8,5.61,29.25,29.25,0,0,0-7.76,9.44,28.09,28.09,0,0,0-3,13.32,33.55,33.55,0,0,0,2.41,12.69,36.93,36.93,0,0,0,8.44,12,92.61,92.61,0,0,0,16.47,12.53q10.42,6.51,26.48,14.37a298.59,298.59,0,0,1,28.26,15.68,124.59,124.59,0,0,1,22.07,17.46A71.75,71.75,0,0,1,863,438.1,57,57,0,0,1,868.06,462.38Z" transform="translate(-68.25 -80.04)"/>
  <path class="cls-1" d="M627.23,136.79c2.41-5.4,4.21-9.83,6.33-14.1,7.73-15.59,17.37-29.73,32.93-38.5,18.65-10.6,38.13.06,40.44,21.4,2,18.51-2.11,36.12-7.23,53.56-9.47,32.28-24,62.32-41,91.26a27.34,27.34,0,0,1-4.82,5.69c-3.32,3.18-7.47,3.35-10.73.16-21-20.57-42.38-40.88-62.88-62-12.9-13.28-22.22-29.14-26.47-47.44A43.54,43.54,0,0,1,556.37,119c6.25-14.19,19.18-18.07,34.92-12.94,12.09,3.93,20.9,12.67,29,22.13C622.34,130.62,624.36,133.24,627.23,136.79Zm18,100.78a56.77,56.77,0,0,0,3.79-6.13c8.6-19.08,17.78-37.94,25.45-57.39,7.56-19.16,14.25-38.78,15-59.71a38.74,38.74,0,0,0-1.71-12.7c-2-6.57-6.34-8.56-12.83-5.93a35.43,35.43,0,0,0-10.44,6.53c-16.86,15.56-26.74,34.53-27.1,57.86-.07,4.83-1.88,8.46-6.44,10.27s-8.18,0-11.2-3.27a62.59,62.59,0,0,1-5.84-7.43c-5.33-7.83-10-16.16-16-23.48A60.54,60.54,0,0,0,582.64,123c-6.52-4-12.34-.94-13.8,6.53a39.79,39.79,0,0,0-.5,13.33c1.69,10.92,6.77,20.7,13.7,29,10.84,13,22.37,25.45,34.1,37.68C625.3,219.1,635.2,228,645.23,237.57Z" transform="translate(-68.25 -80.04)"/>
  <path class="cls-2" d="M789,399.72c-.12,12.63-9.8,22.34-22.17,22.22-13.81-.13-24.69-11.43-24.61-25.57.06-13.23,10.64-23.93,23.36-23.62C778.49,373.06,789.1,385.31,789,399.72Z" transform="translate(-68.25 -80.04)"/>
  <path class="cls-3" d="M853.8,371.7c-3.75-16.37-11.75-31.07-22.26-44.28-30.94-39-79.94-40.1-114.57-12.27-27.75,22.3-37,53.58-35.82,88.26.25,7.57,1.6,15.11,2.51,23.27L699.4,457c6.67,9.85,16.09,16.43,26.11,22.58,34.76,21.31,73.44,14.43,102-9.31,8.67-7.2,13.82-16.92,18.56-26.89A107.3,107.3,0,0,0,853.8,371.7Zm-79,72.65c-19.71,7.64-46.27-5.93-51.19-26.46-2.51-10.5-5.48-21.12-6-31.78-.29-6.84,2.87-14.19,5.77-20.74a47.6,47.6,0,0,1,25.91-25.09c17.5-7.24,36.64.45,47.39,18.1,6.2,10.16,9.74,21,9.79,33C807.34,412.82,792.61,437.44,774.8,444.35Z" transform="translate(-68.25 -80.04)"/>
  <path class="cls-4" d="M688.3,435.45l-4.63-8.9c-47.2,11.25-92.79,27.51-139.1,45.81,0-5-.06-8.41,0-11.83.51-29.09,1.48-58.17,1.44-87.26-.06-34-.5-68-5.58-101.67-1.4-9.29-1.23-18.88-6.13-27.56-7.47-13.26-19.29-14.08-27.57-1.31-3.89,6-7.15,12.39-10.82,18.53-4.23,7.07-8.6,14.06-13.35,21.82-4.48-6.91-8.16-12.81-12-18.55-19.61-28.92-47-42.48-81.76-40-20.74,1.41-39.4,8.89-56.32,20.91-26.65,18.93-44.66,44.87-59.73,73.18-9.91,18.63-17,38.38-22.67,58.69-1.07,3.83-3.18,6.95-7.79,8.19-17.11,4.6-33.89,9.72-49.51,18.83-36.13,21.09-55.39,53.17-63.05,93.13-2.27,11.84-5.35,21.9-15.71,30.18-16.33,13.06-28.3,30.3-34,50.7-4.23,15.32-6.66,31.16-9.51,46.84-4,21.93-2.29,43.82,1.34,65.62,2,11.88,4.77,23.53,11.87,33.58,6.22,8.8,17.72,12.24,27.08,8.34,12-5,19.59-16.79,18.06-28.16-2-15.21-11-24.78-25.17-26.77-4.29-.61-7.38-2-7.22-7.43.35-11.31-.55-22.69.34-33.95,1-12.21,2.8-24.39,7.06-35.66a4.7,4.7,0,0,1,.48-1.72,3.86,3.86,0,0,1,.17-.82c.34-1,.73-2.06,1-3.12.12-.51.26-1,.39-1.53a1.18,1.18,0,0,1,0-.4c.09-.42.2-.84.33-1.25a6.76,6.76,0,0,1,.1-.77V591a5.81,5.81,0,0,1,.49-2.05,1.24,1.24,0,0,1,.11-.36,5.82,5.82,0,0,1,.32-1l.09-.31a3.82,3.82,0,0,1,.38-1.23,3.76,3.76,0,0,1,.44-.9c6.33-17.27,16.64-31.65,32.14-41.89,10.29-6.8,23.39-6.31,32.32.27,8.47,6.24,12.77,15.34,15.54,24.72a172.22,172.22,0,0,1,6,32.23c2,20.39-1.35,40.55-4.76,60.59-.92,5.36-3.5,10.44-5.44,16l-5.2-2.58c-10.88-5.43-24.28-1.89-29.77,7.86-5.71,10.13-1.61,23.84,8.62,30.53,10.75,7,27.82,4.28,38.66-4.58,9.09-7.43,14-17.66,18-28.28,7-18.17,10.33-37.14,11.77-56.49,2.11-28.18-.61-55.4-14.07-81-10.31-19.82-25.27-32.22-48.06-33.92a21.82,21.82,0,0,1-4.4-1.31c1.82-5.43,3.46-10.29,5.07-15.16,5-15.09,11.28-29.7,22.16-41.39,4.68-5,9.53-10.29,15.65-13.38l1-.56.16-.1a1.87,1.87,0,0,1,.32-.15l.18-.13a26.13,26.13,0,0,1,3.62-1.83,11,11,0,0,1,1.29-.63l.35-.2.12-.09a5.29,5.29,0,0,1,1.06-.54l.42-.23c.22-.15.44-.29.66-.41l.21-.11.32-.16c9.9-5.09,18.62-9.28,29-10.56.21,2.11.49,3.72.52,5.33.29,16.32.45,32.63.85,48.94a8.34,8.34,0,0,1,0,1,2.06,2.06,0,0,0,.13.47A11.31,11.31,0,0,1,243,479a3.69,3.69,0,0,1,.12.81l.07.16a3.78,3.78,0,0,1,.16.94c.08.34.16.68.23,1,.13.55.23,1.09.3,1.61.14.88.27,1.77.37,2.65.1.39.2.79.28,1.23,3.12,16.16,7.09,31.89,17.32,45.51,16.28,21.68,38.91,27.71,63.22,19.51,17.49-5.9,31.14-17.5,44-30.21,31.45-31.08,55.39-67.66,76.74-106,16.26-29.36,31.56-59.22,47.38-88.85,1.41-2.65,3-5.2,4.54-7.8l1.24.47c-.45,5.77-.79,11.54-1.36,17.29-2.21,22.26-1.76,44.66-4.79,66.94-3.83,28.18-5.78,56.63-8.27,85-.59,6.77-3.09,11.26-9.34,14.55-44.94,23.7-87.25,51.49-127.8,82.08a205.34,205.34,0,0,0-41.65,41.72c-15,20.16-24.61,42.33-23.29,68,1.91,37.11,30.72,65.2,67.75,65.78,26.87.42,51.64-7.51,74.07-22C452.77,721,474.39,696,491.22,666.71c17.34-30.23,30.46-62.14,38-96.19,3.61-16.39,6.7-32.94,9-49.55,1.19-8.7,3.52-14.72,12.6-17.94,29.92-10.63,59.47-22.33,89.45-32.77,17.08-6,34.74-10.25,52.14-15.29,2.69-.78,5.08-1,7,1.86Zm-273.47-28c-14.09,23.56-28.67,46.79-46.45,67.82-11.86,14-24.89,26.88-39.86,37.49-4.68,3.32-10.81,5-16.53,6.32s-10.57-2.3-12.7-8.1a86.29,86.29,0,0,1-5.07-33.85c.85-18.43,2.42-36.85,4.35-55.2,1.1-10.51,2.36-11.21,12.66-12.54,18-2.33,36.09-3.83,53.92-7,17.32-3.06,34.35-7.73,51.5-11.71,2.37-.55,4.7-1.21,7-1.82l1,1C421.41,395.79,418.27,401.72,414.83,407.47ZM443.75,343c-19.42,15.46-42.66,20.56-66.45,23.9-20.42,2.88-40.87,5.49-61.31,8.17a60.75,60.75,0,0,1-6.33,0c1.8-5.09,3-9.18,4.65-13.08,10-23.68,21.45-46.56,38.76-65.95,7.33-8.21,14.89-16.25,25-21.18,24.31-11.89,40.91-10.51,59.68,7.58a130.2,130.2,0,0,1,15.81,18.49C464.48,316.43,458,331.62,443.75,343Zm27.86,220.42c-6.68,31-16.68,60.89-32,88.8-13.92,25.38-33.11,45.79-59,59.09-11.2,5.75-23,10.89-36.13,9.74-16.79-1.48-25.93-11.56-26.88-28.44-.84-15,4.88-27.88,12.5-40.28,12-19.52,28.73-34.31,46.93-47.69,9.78-7.2,19.31-14.77,29.44-21.45,21.42-14.11,43.15-27.74,64.77-41.55,1.35-.87,2.84-1.54,4.26-2.29l1.22.81C475,547.89,473.29,555.67,471.61,563.43Z" transform="translate(-68.25 -80.04)"/>
</svg>
