<svg id="Layer_1" data-name="Layer 1" xmlns="http://www.w3.org/2000/svg" viewBox="0 0 788.46 682.73"><defs><style>.cls-1{fill:#414141;}.cls-2{fill:#525252;}.cls-3{fill:#585858;}</style></defs><path class="cls-1" d="M957.75,438.68C954,422.31,946,407.61,935.49,394.4c-30.94-39-79.94-40.1-114.57-12.27-27.75,22.3-37,53.58-35.82,88.26.25,7.57,1.6,15.11,2.51,23.27-47.2,11.25-92.79,27.51-139.1,45.81,0-5-.06-8.41,0-11.83.51-29.09,1.48-58.17,1.44-87.26-.06-34-.5-68-5.58-101.67-1.4-9.29-1.23-18.88-6.13-27.56-7.47-13.26-19.29-14.08-27.57-1.31-3.89,6-7.15,12.39-10.82,18.53-4.23,7.07-8.6,14.06-13.35,21.82-4.48-6.91-8.16-12.81-12-18.55-19.61-28.92-47-42.48-81.76-40.05C472,293,453.34,300.48,436.42,312.5c-26.65,18.93-44.66,44.87-59.73,73.18-9.91,18.63-17,38.38-22.67,58.69-1.07,3.83-3.18,6.95-7.79,8.19-17.11,4.6-33.89,9.72-49.51,18.83-36.13,21.09-55.39,53.17-63.05,93.13-2.27,11.84-5.35,21.9-15.71,30.18C201.63,607.76,189.66,625,184,645.4c-4.23,15.32-6.66,31.16-9.51,46.84-4,21.93-2.29,43.82,1.34,65.62,2,11.88,4.77,23.53,11.87,33.58,6.22,8.8,17.72,12.24,27.08,8.34,12-5,19.59-16.79,18.06-28.16-2-15.21-11-24.78-25.17-26.77-4.29-.61-7.38-2-7.22-7.43.35-11.31-.55-22.69.34-33.95,1-12.21,2.8-24.39,7.06-35.66a4.6,4.6,0,0,1,.48-1.72,3.86,3.86,0,0,1,.17-.82c.34-1,.73-2.06,1-3.12.12-.51.26-1,.39-1.53,0-.12,0-.25.05-.4a12.73,12.73,0,0,1,.33-1.25c0-.26.07-.51.1-.77,0,0,0-.07,0-.11a5.76,5.76,0,0,1,.49-2.05c0-.12.07-.24.11-.36a6.14,6.14,0,0,1,.32-1l.09-.31a3.82,3.82,0,0,1,.38-1.23,3.76,3.76,0,0,1,.44-.9c6.33-17.27,16.64-31.65,32.14-41.89,10.29-6.8,23.39-6.31,32.32.27,8.47,6.24,12.77,15.34,15.54,24.72a172.41,172.41,0,0,1,6,32.23c2,20.39-1.35,40.55-4.76,60.59-.92,5.36-3.5,10.44-5.44,16l-5.2-2.58c-10.88-5.43-24.28-1.89-29.77,7.86-5.71,10.13-1.61,23.84,8.62,30.53,10.75,7,27.82,4.28,38.66-4.58,9.09-7.43,14-17.66,18.05-28.28,7-18.17,10.33-37.14,11.77-56.49,2.11-28.18-.61-55.4-14.07-81C305.75,589.8,290.79,577.4,268,575.7a22.24,22.24,0,0,1-4.4-1.31c1.82-5.43,3.46-10.29,5.07-15.16,5-15.09,11.28-29.7,22.16-41.39,4.68-5,9.53-10.29,15.65-13.38.33-.19.67-.38,1-.56l.16-.1a3.13,3.13,0,0,1,.32-.15l.18-.13a25.62,25.62,0,0,1,3.62-1.83,11.84,11.84,0,0,1,1.29-.63,4,4,0,0,1,.35-.2l.12-.09a5.56,5.56,0,0,1,1.06-.54A4.28,4.28,0,0,1,315,500c.22-.15.44-.29.66-.41h0l.21-.11.32-.16c9.9-5.09,18.62-9.28,29-10.56.21,2.11.49,3.72.52,5.33.29,16.32.45,32.63.85,48.94a7.71,7.71,0,0,1,0,1c0,.16.09.31.13.47a11.31,11.31,0,0,1,.24,1.65,3.78,3.78,0,0,1,.12.81l.07.16a3.86,3.86,0,0,1,.16.94c.08.34.16.68.23,1,.13.55.23,1.09.3,1.61.14.88.27,1.77.37,2.65.1.39.2.79.28,1.23,3.12,16.16,7.09,31.89,17.32,45.51,16.28,21.68,38.91,27.71,63.22,19.51,17.49-5.9,31.14-17.5,44-30.21,31.45-31.08,55.39-67.66,76.74-106C566,454,581.3,424.14,597.12,394.51c1.41-2.65,3-5.2,4.54-7.8l1.24.47c-.45,5.77-.79,11.54-1.36,17.29-2.21,22.26-1.76,44.66-4.79,66.94-3.83,28.18-5.78,56.63-8.27,85-.59,6.77-3.09,11.26-9.34,14.55-44.94,23.7-87.25,51.49-127.8,82.08a205.59,205.59,0,0,0-41.65,41.72c-15,20.16-24.61,42.33-23.29,68,1.91,37.11,30.72,65.2,67.75,65.78,26.87.42,51.64-7.51,74.07-22,28.49-18.43,50.11-43.39,66.94-72.72,17.34-30.23,30.46-62.14,38-96.19,3.61-16.39,6.7-32.94,9-49.55,1.19-8.7,3.52-14.72,12.6-17.94,29.92-10.63,59.47-22.33,89.45-32.77,17.08-6,34.74-10.25,52.14-15.29,2.69-.78,5.08-1,7,1.86,6.67,9.85,16.09,16.43,26.11,22.58,34.76,21.31,73.44,14.43,102-9.31,8.67-7.2,13.82-16.92,18.56-26.89C960.94,487.32,963.37,463.24,957.75,438.68Zm-439.14,35.9c-14.09,23.56-28.67,46.79-46.45,67.82-11.86,14-24.89,26.88-39.86,37.49-4.68,3.32-10.81,5-16.53,6.32s-10.57-2.3-12.7-8.1A86.33,86.33,0,0,1,398,544.26c.85-18.43,2.42-36.85,4.35-55.2,1.1-10.51,2.36-11.21,12.66-12.54,18-2.33,36.09-3.83,53.92-7,17.32-3.06,34.35-7.73,51.5-11.71,2.37-.55,4.7-1.21,7-1.82l1,1C525.19,462.9,522.05,468.83,518.61,474.58Zm28.92-64.46c-19.42,15.46-42.66,20.56-66.45,23.9-20.42,2.88-40.87,5.49-61.31,8.17a63.26,63.26,0,0,1-6.33,0c1.8-5.09,3-9.18,4.65-13.08,10-23.68,21.45-46.56,38.76-65.95,7.33-8.21,14.89-16.25,25-21.18,24.31-11.89,40.91-10.51,59.68,7.58a130.29,130.29,0,0,1,15.81,18.49C568.26,383.54,561.82,398.73,547.53,410.12Zm27.86,220.42c-6.68,31-16.68,60.89-32,88.8-13.92,25.38-33.11,45.79-59,59.09-11.2,5.75-23,10.89-36.13,9.74-16.79-1.48-25.93-11.56-26.88-28.44-.84-15,4.88-27.88,12.5-40.28,12-19.52,28.73-34.31,46.93-47.69,9.78-7.2,19.31-14.77,29.44-21.45,21.42-14.11,43.15-27.74,64.77-41.55,1.35-.87,2.84-1.54,4.26-2.29l1.22.81C578.8,615,577.07,622.78,575.39,630.54Zm303.2-119.21c-19.71,7.64-46.27-5.93-51.19-26.46-2.51-10.5-5.48-21.12-5.95-31.78-.29-6.84,2.87-14.19,5.77-20.74a47.6,47.6,0,0,1,25.91-25.09c17.5-7.24,36.64.45,47.39,18.1,6.2,10.16,9.74,21,9.79,33C911.13,479.8,896.4,504.42,878.59,511.33Z" transform="translate(-172.21 -145.81)"/><path class="cls-2" d="M727.74,202.6c2.41-5.4,4.21-9.83,6.33-14.1C741.8,172.91,751.44,158.77,767,150c18.65-10.6,38.13.06,40.44,21.4,2,18.51-2.11,36.12-7.23,53.56-9.47,32.28-24,62.32-41,91.26a27.72,27.72,0,0,1-4.82,5.69c-3.32,3.18-7.47,3.35-10.73.16-21.05-20.57-42.38-40.88-62.88-62-12.9-13.28-22.22-29.14-26.47-47.44a43.47,43.47,0,0,1,2.57-27.86c6.25-14.19,19.18-18.07,34.92-12.94,12.09,3.93,20.9,12.67,29,22.13C722.85,196.43,724.87,199.05,727.74,202.6Zm18,100.78a59.29,59.29,0,0,0,3.79-6.13c8.6-19.08,17.78-37.94,25.45-57.39,7.56-19.16,14.25-38.78,15-59.71a39,39,0,0,0-1.71-12.7c-2-6.57-6.34-8.56-12.83-5.93A35.25,35.25,0,0,0,765,168.05c-16.86,15.56-26.74,34.53-27.1,57.86-.07,4.83-1.88,8.46-6.44,10.27s-8.18,0-11.2-3.27a61.79,61.79,0,0,1-5.84-7.43c-5.33-7.83-10-16.16-16-23.48a60.74,60.74,0,0,0-15.27-13.21c-6.52-4-12.34-.94-13.8,6.53a39.59,39.59,0,0,0-.5,13.33c1.69,10.92,6.77,20.7,13.7,29,10.84,13,22.37,25.45,34.1,37.68C725.81,284.91,735.71,293.77,745.74,303.38Z" transform="translate(-172.21 -145.81)"/><path class="cls-3" d="M889.48,465.53c-.12,12.63-9.8,22.34-22.17,22.22-13.81-.13-24.69-11.43-24.61-25.57.06-13.23,10.64-23.93,23.36-23.62C879,438.87,889.61,451.12,889.48,465.53Z" transform="translate(-172.21 -145.81)"/></svg>